# xmcd
#
# Track frame offsets:
#	150
#	10622
#	21090
#	31987
#	42566
#	54501
#	68686
#	84790
#	98591
#	127152
#	139103
#	149165
#	161720
#	177164
#	190357
#
# Disc length: 2694 seconds
#
# Revision: 0
# Processed by: cddbd v1.5.2PL0 Copyright (c) Steve Scherf et al.
# Submitted via: dBpowerAMP V4.0
#
DISCID=cb0a840f
DTITLE=Various Artist - Blues - Definitive Collection CD3 Blues Legends
DYEAR=1900
DGENRE=Blues
TTITLE0=Howlin' Wolf - Somebody in My Home
TTITLE1=Sonny Boy Williamson II - Let Your Conscience Be Your Guide
TTITLE2=Muddy Waters - Key to the Highway
TTITLE3=Big Mama Thornton - I Ain't No Fool Either
TTITLE4=Annie Laurie - It's Been a Long Time
TTITLE5=Ray Charles - Blues Is My Middle Name
TTITLE6=B.B. King - The Other Night Blues
TTITLE7=Willie Dixon - Walking the Blues
TTITLE8=Buddy Guy - First Time I Met the Blues
TTITLE9=Big Joe Turner - Playboy Blues
TTITLE10=John Lee Hooker - Dimples
TTITLE11=Lightnin' Hopkins - Life I Used to Live
TTITLE12=Little Walter  Otis Rush - Walter's Blues
TTITLE13=Buster Brown - Fannie Mae
TTITLE14=Little Milton - Losing Hand
EXTD=
EXTT0=
EXTT1=
EXTT2=
EXTT3=
EXTT4=
EXTT5=
EXTT6=
EXTT7=
EXTT8=
EXTT9=
EXTT10=
EXTT11=
EXTT12=
EXTT13=
EXTT14=
PLAYORDER=
